<svg width="128" height="136" viewBox="0 0 128 136" fill="none" xmlns="http://www.w3.org/2000/svg">
<rect width="128" height="128" transform="translate(0 8)" fill="#FFF1E8"/>
<path d="M56.125 19.6875H54.1562V21.6562H56.125V19.6875Z" fill="black"/>
<path d="M73.8438 19.6875H71.875V21.6562H73.8438V19.6875Z" fill="black"/>
<path d="M54.1562 21.6562H52.1875V25.5938H54.1562V21.6562Z" fill="black"/>
<path d="M75.8125 21.6562H73.8438V25.5938H75.8125V21.6562Z" fill="black"/>
<path d="M62.0312 23.625H60.0625V25.5938H62.0312V23.625Z" fill="#1E1D1C"/>
<path d="M67.9375 23.625H62.0312V29.5312H67.9375V23.625Z" fill="black"/>
<path d="M60.0625 25.5938H58.0938V27.5625H60.0625V25.5938Z" fill="#1E1D1C"/>
<path d="M62.0312 25.5938H60.0625V29.5312H62.0312V25.5938Z" fill="black"/>
<path d="M69.9062 25.5938H67.9375V41.3438H69.9062V25.5938Z" fill="black"/>
<path d="M58.0938 27.5625H56.125V29.5312H58.0938V27.5625Z" fill="#1E1D1C"/>
<path d="M60.0625 27.5625H58.0938V41.3438H60.0625V27.5625Z" fill="black"/>
<path d="M71.875 27.5625H69.9062V39.375H71.875V27.5625Z" fill="black"/>
<path d="M56.125 29.5312H54.1562V31.5H56.125V29.5312Z" fill="#1E1D1C"/>
<path d="M58.0938 29.5312H56.125V39.375H58.0938V29.5312Z" fill="black"/>
<path d="M62.0312 29.5312H60.0625V35.4375H62.0312V29.5312Z" fill="#FFF1E8"/>
<path d="M65.9688 29.5312H62.0312V92.5312H65.9688V29.5312Z" fill="black"/>
<path d="M67.9375 29.5312H65.9688V35.4375H67.9375V29.5312Z" fill="#FFF1E8"/>
<path d="M73.8438 29.5312H71.875V37.4062H73.8438V29.5312Z" fill="black"/>
<path d="M56.125 31.5H54.1562V37.4062H56.125V31.5Z" fill="black"/>
<path d="M62.0312 35.4375H60.0625V43.3125H62.0312V35.4375Z" fill="black"/>
<path d="M67.9375 35.4375H65.9688V43.3125H67.9375V35.4375Z" fill="black"/>
<path d="M62.0312 47.25H60.0625V92.5312H62.0312V47.25Z" fill="black"/>
<path d="M67.9375 47.25H65.9688V92.5312H67.9375V47.25Z" fill="black"/>
<path d="M60.0625 49.2188H58.0938V92.5312H60.0625V49.2188Z" fill="black"/>
<path d="M69.9062 49.2188H67.9375V92.5312H69.9062V49.2188Z" fill="black"/>
<path d="M58.0938 51.1875H52.1875V54.1406H58.0938V51.1875Z" fill="black"/>
<path d="M75.8125 51.1875H69.9062V54.1406H75.8125V51.1875Z" fill="black"/>
<path d="M52.1875 54.1406H49.2344V63.9844H52.1875V54.1406Z" fill="black"/>
<path d="M58.0938 54.1406H56.125V98.4375H58.0938V54.1406Z" fill="black"/>
<path d="M71.875 54.1406H69.9062V98.4375H71.875V54.1406Z" fill="black"/>
<path d="M78.7656 54.1406H75.8125V63.9844H78.7656V54.1406Z" fill="black"/>
<path d="M50.2188 63.9844H47.2656V70.875H50.2188V63.9844Z" fill="black"/>
<path d="M80.7344 63.9844H77.7812V70.875H80.7344V63.9844Z" fill="black"/>
<path d="M52.1875 70.875H49.2344V78.75H52.1875V70.875Z" fill="black"/>
<path d="M56.125 70.875H54.1562V90.5625H56.125V70.875Z" fill="black"/>
<path d="M73.8438 70.875H71.875V90.5625H73.8438V70.875Z" fill="black"/>
<path d="M78.7656 70.875H75.8125V78.75H78.7656V70.875Z" fill="black"/>
<path d="M54.1562 78.75H52.1875V82.6875H54.1562V78.75Z" fill="black"/>
<path d="M75.8125 78.75H73.8438V82.6875H75.8125V78.75Z" fill="black"/>
<path d="M59.0781 92.5312H58.0938V98.4375H59.0781V92.5312Z" fill="black"/>
<path d="M69.9062 92.5312H68.9219V98.4375H69.9062V92.5312Z" fill="black"/>
<path d="M62.0312 98.4375H59.0781V108.281H62.0312V98.4375Z" fill="black"/>
<path d="M68.9219 98.4375H65.9688V108.281H68.9219V98.4375Z" fill="black"/>
<path d="M59.0781 108.281H56.125V114.188H59.0781V108.281Z" fill="black"/>
<path d="M71.875 108.281H68.9219V114.188H71.875V108.281Z" fill="black"/>
<path d="M57.1094 114.188H54.1562V123.047H57.1094V114.188Z" fill="black"/>
<path d="M73.8438 114.188H70.8906V123.047H73.8438V114.188Z" fill="black"/>
<path d="M63.0156 123.047H57.1094V126H63.0156V123.047Z" fill="black"/>
<path d="M70.8906 123.047H64.9844V126H70.8906V123.047Z" fill="black"/>
</svg>
